<svg height="21" viewBox="0 0 41 21" width="41" xmlns="http://www.w3.org/2000/svg" xmlns:xlink="http://www.w3.org/1999/xlink"><filter id="a" height="176.5%" width="134.2%" x="-17.1%" y="-38.2%"><feOffset dx="1" dy="1" in="SourceAlpha" result="shadowOffsetOuter1"/><feGaussianBlur in="shadowOffsetOuter1" result="shadowBlurOuter1" stdDeviation="1"/><feColorMatrix in="shadowBlurOuter1" result="shadowMatrixOuter1" type="matrix" values="0 0 0 0 0.526013361   0 0 0 0 0.526013361   0 0 0 0 0.526013361  0 0 0 1 0"/><feMerge><feMergeNode in="shadowMatrixOuter1"/><feMergeNode in="SourceGraphic"/></feMerge></filter><g fill-rule="evenodd" filter="url(#a)" transform="translate(1 1)"><path d="m.35060683 15.9728141-.35060683-2.2549767v-6.88087868-5.21342572l.35060683-1.19010566 1.4716954-.43342734h1.07716859l7.44205038 11.7145849v-4.87762618-5.21342572-1.623533h2.2748034l.4931585.43342734v7.75412198 7.24642948l-.8620862.5388353-1.4064429.5129852-1.83309398-1.75156-6.1083892-9.22265973v4.34832783 4.8743319.6997395l-1.07716859 1.0518205z"/><path d="m18.3301476 0-1.3301476.79758663v2.74738224 7.79215533l.6650738 1.8481522.6650738 1.7731819 2.0710147.9573853 3.2182044.5699557h2.1156876l2.4406954-1.1291196 1.0247156-1.2299562.7348438-1.9232466.3357995-4.26756561v-5.49069843l-.3357995-1.64762623-.7348438-.79758663-2.1222129.32149417-.5526387.81608915.5526387 7.52167763v2.67786325l-1.3431981 2.2060372-3.1143022.5835621-1.798711-.9414471-.8392478-2.7860318v-4.75741096-3.72642108l-1.0594755-1.59391839z"/><path d="m35.0924778 0-1.0924778 1.13758332v1.25091004 4.03506648 3.17383164 2.82744212 1.7018899.8317348l1.466174 1.527341h.8753877l.6818889-.7483963v-3.3125694-3.23728428-4.1145455-3.13826647-1.35775445l-1.5117253-.5769829z"/></g></svg>